<svg width="1920" height="1080" viewBox="0 0 1920 1080" fill="none" xmlns="http://www.w3.org/2000/svg">
<g clip-path="url(#clip0_1_1746)">
<rect width="1920" height="1080" fill="#181C7F"/>
<path d="M1220.11 801.579C1251.36 830.389 1277.98 864.433 1312.43 889.317C1346.88 914.201 1392.82 929.018 1432.15 912.914C1466.38 898.899 1488.41 864.285 1497.61 828.405C1522.92 730.262 1453.31 618.21 1354.16 597.294C1315.64 589.168 1273.99 592.925 1238.64 575.724C1193.68 553.879 1167.92 502.465 1121.81 483.216C1076.64 464.347 1024.18 481.696 982.894 508.015C949.141 529.523 918.531 557.931 901.992 594.36C890.643 619.35 886.825 649.975 900.938 673.508C920.177 705.589 963.507 712.322 1000.87 710.971C1090.31 707.7 1153.45 740.119 1220.11 801.579Z" stroke="#6926F7" stroke-width="3" stroke-miterlimit="10"/>
<path d="M956.482 498.096C921.442 520.32 890.094 550.27 873.408 588.197C861.974 614.2 858.388 645.711 872.543 670.405C892.373 705.061 936.505 715.255 975.658 716.648C1000.19 717.412 1024.59 720.522 1048.52 725.935C1059.91 728.552 1071.01 731.683 1081.81 735.327C1128.45 750.925 1168.01 779.502 1209.23 818.168C1223.22 831.275 1236.84 845.247 1250.66 858.523C1269.65 876.885 1291.84 895.416 1312.72 904.956C1316.04 906.476 1319.22 907.869 1322.45 909.178C1327.11 911.035 1331.86 912.681 1336.98 914.349C1352.03 919.342 1367.33 923.569 1382.8 927.012C1409.76 932.648 1438.37 931.803 1462.31 918.781C1496.57 900.186 1516.61 863.04 1522.94 824.986C1527.16 799.116 1525.86 772.646 1519.12 747.315C1512.22 721.102 1499.84 696.323 1484.25 673.043C1454.55 628.721 1412.11 592.017 1361.03 578.425C1321.54 567.872 1278.23 569.223 1240.79 551.135C1193.05 528.129 1163.7 476.905 1114.51 462.49C1095.4 456.854 1075.59 458.163 1055.25 461.519C1021.27 467.154 986.185 479.353 956.482 498.096Z" stroke="#6926F7" stroke-width="3" stroke-miterlimit="10"/>
<path d="M930.05 488.197C893.66 511.076 861.615 542.608 844.823 582.034C833.305 609.071 829.909 641.469 844.106 667.324C864.548 704.555 909.502 718.21 950.449 722.347C976.313 724.902 1001.96 729.311 1027.19 735.538C1039.33 738.55 1051.18 741.962 1062.74 745.775C1113.5 762.217 1154.8 793.39 1198.47 834.737C1214.52 849.997 1230.66 866.206 1246.99 881.17C1269.18 901.411 1297.62 922.137 1321.73 927.266C1325.53 928.068 1329.05 928.68 1332.6 929.144C1337.68 929.777 1342.79 930.178 1348.52 930.79C1363.82 932.373 1382.87 936.215 1401.68 939.233C1432.91 944.066 1466.36 942.061 1492.58 924.712C1526.95 901.981 1544.92 861.921 1548.4 821.63C1550.64 794.253 1547.22 766.708 1538.36 740.709C1529.25 713.694 1514.33 688.789 1497.16 664.263C1464.44 617.514 1421.22 576.61 1367.83 559.641C1327.26 546.703 1282.26 545.584 1242.56 526.589C1192.04 502.422 1158.75 451.641 1106.83 441.721C1085.46 437.648 1064.03 442.144 1041.43 447.146C1003.86 455.609 963.676 467.028 930.05 488.197Z" stroke="#6926F7" stroke-width="3" stroke-miterlimit="10"/>
<path d="M903.596 478.277C865.898 501.895 833.157 535.031 816.218 575.892C804.615 603.942 801.451 637.248 815.669 664.242C836.765 704.069 882.416 721.229 925.24 728.067C952.394 732.399 979.311 738.105 1005.89 745.163C1018.71 748.568 1031.3 752.247 1043.65 756.201C1098.5 773.487 1141.6 807.299 1187.48 851.368C1205.62 868.802 1224.23 887.249 1243.13 903.817C1268.44 925.978 1303.27 948.92 1330.55 949.511C1334.54 949.597 1338.54 949.442 1342.51 949.047C1348.04 948.498 1353.5 947.654 1359.85 947.211C1376.73 945.966 1398.81 948.836 1420.37 951.305C1455.84 955.358 1494.21 952.34 1522.65 930.474C1557.24 903.943 1573.06 860.697 1573.66 818.105C1573.95 789.25 1568.45 760.629 1557.5 733.934C1546.13 706.138 1528.7 681.169 1509.95 655.293C1474.21 606.137 1430.18 561.055 1374.49 540.688C1333.06 525.533 1286.38 521.882 1244.5 502C1191.19 476.673 1153.79 426.631 1099.32 420.953C1075.63 418.484 1052.68 426.124 1027.93 432.772C986.438 444.085 941.209 454.828 903.596 478.277Z" stroke="#6926F7" stroke-width="3" stroke-miterlimit="10"/>
<path d="M877.163 468.378C838.136 492.692 804.678 527.328 787.633 569.687C775.925 598.771 772.866 633.005 787.253 661.14C808.834 703.563 855.371 723.994 900.03 733.723C928.91 740.055 957.178 746.978 984.582 754.724C998.125 758.551 1011.49 762.505 1024.66 766.585C1083.73 784.716 1128.43 821.187 1176.68 867.894C1196.91 887.502 1217.96 908.228 1239.46 926.379C1268 950.461 1309.07 975.641 1339.56 971.673C1343.98 971.084 1348.34 970.145 1352.62 968.866C1358.59 967.114 1364.41 965.024 1371.35 963.526C1389.93 959.474 1414.95 961.415 1439.23 963.378C1478.96 966.671 1522.22 962.766 1552.9 936.257C1587.81 906.096 1601.42 859.473 1599.08 814.602C1597.44 784.277 1589.87 754.569 1576.8 727.159C1563.21 698.582 1543.26 673.402 1522.9 646.323C1484.17 594.782 1439.34 545.563 1381.35 521.798C1338.95 504.385 1290.64 498.18 1246.55 477.475C1190.45 451.008 1148.83 401.937 1091.89 400.248C1065.84 399.488 1041.39 410.105 1014.43 418.441C968.971 432.456 918.742 442.481 877.163 468.378Z" stroke="#6926F7" stroke-width="3" stroke-miterlimit="10"/>
<path d="M850.73 458.48C810.374 483.511 776.22 519.687 759.027 563.588C747.256 593.685 744.429 628.826 758.816 658.1C780.967 703.141 828.305 726.948 874.842 739.464C904.735 747.527 934.395 755.8 963.296 764.369C977.557 768.59 991.62 772.812 1005.49 777.033C1068.63 796.028 1115.18 835.159 1165.81 884.568C1188.13 906.328 1211.65 929.334 1235.72 949.068C1267.37 975.092 1314.79 1002.53 1348.48 993.982C1353.36 992.711 1358.12 990.987 1362.68 988.832C1369.21 985.503 1375.93 982.557 1382.8 980.01C1403.01 973.129 1431.05 974.037 1458.05 975.598C1502.01 978.131 1550.28 973.488 1583.06 942.188C1618.4 908.418 1629.66 858.376 1624.45 811.33C1620.86 779.542 1611.23 748.736 1596.06 720.574C1580.22 691.237 1557.75 665.91 1535.81 637.585C1494.06 583.638 1448.43 530.325 1388.14 502.992C1344.77 483.343 1294.69 474.562 1248.51 452.886C1189.53 425.28 1143.62 377.348 1084.3 379.48C1055.86 380.493 1029.94 394.064 1000.78 404.047C951.651 420.911 896.275 430.198 850.73 458.48Z" stroke="#6926F7" stroke-width="3" stroke-miterlimit="10"/>
<path d="M824.276 448.496C782.633 474.267 747.741 511.962 730.422 557.382C718.566 588.493 715.929 624.542 730.422 654.956C753.1 702.613 801.282 729.755 849.633 745.121C880.538 754.935 911.57 764.538 941.99 773.93C956.968 778.531 971.798 783.069 986.438 787.438C1053.69 807.257 1101.87 849.047 1154.87 901.115C1179.23 925.071 1205.22 950.335 1231.89 971.673C1266.78 999.617 1320.49 1029.31 1357.32 1016.19C1362.66 1014.22 1367.79 1011.71 1372.61 1008.69C1379.51 1004.1 1386.7 999.98 1394.15 996.367C1415.99 986.679 1447.02 986.616 1476.74 987.713C1524.97 989.465 1578.32 984.062 1613.15 947.992C1649.01 910.887 1657.87 857.236 1649.73 807.784C1644.21 774.56 1632.49 742.671 1615.19 713.778C1597.18 683.702 1572.12 658.248 1548.66 628.657C1503.89 572.325 1457.44 514.938 1394.89 484.102C1350.59 462.215 1298.76 450.839 1250.43 428.277C1188.74 399.509 1138.62 352.97 1076.85 358.732C1046.03 361.603 1018.67 378.129 987.282 389.695C934.163 409.471 873.809 417.935 824.276 448.496Z" stroke="#6926F7" stroke-width="3" stroke-miterlimit="10"/>
<path d="M797.844 438.661C754.872 465.17 719.262 504.385 701.837 551.283C689.876 583.427 687.408 620.405 701.964 651.938C725.169 702.212 774.217 732.689 824.319 750.883C856.236 762.449 888.66 773.382 920.578 783.597C936.273 788.599 951.863 793.411 967.241 797.928C1038.63 818.591 1088.52 863.082 1143.87 917.789C1170.33 943.918 1198.72 971.42 1228.03 994.383C1266 1024.25 1326.04 1056.22 1366.12 1038.49C1371.94 1035.83 1377.45 1032.53 1382.55 1028.66C1389.79 1023.32 1396.68 1017.49 1405.46 1012.85C1428.94 1000.33 1462.97 999.301 1495.43 999.934C1547.9 1000.93 1606.42 994.868 1643.21 953.923C1679.6 913.441 1686.03 856.117 1674.85 804.429C1667.4 769.78 1653.62 736.804 1634.22 707.151C1614.05 676.231 1586.63 650.629 1561.48 619.772C1513.7 561.034 1466.43 499.615 1401.6 465.234C1356.22 441.173 1302.81 427.243 1252.31 403.709C1187.86 373.781 1133.43 328.72 1069.28 337.985C1036.08 342.776 1007.26 362.131 973.633 375.343C916.738 397.842 851.342 405.672 797.844 438.661Z" stroke="#6926F7" stroke-width="3" stroke-miterlimit="10"/>
<path d="M771.411 428.762C727.11 455.989 690.804 496.724 673.232 545.141C661.207 578.298 658.887 616.205 673.548 648.856C697.281 701.769 747.172 735.559 799.173 756.497C832.124 769.815 865.919 782.077 899.356 793.116C915.768 798.519 932.068 803.57 948.255 808.27C1023.76 829.882 1075.34 876.949 1133.07 934.378C1161.6 962.703 1192.52 992.462 1224.35 1017.03C1265.58 1048.84 1331.94 1083.07 1375.12 1060.74C1381.42 1057.37 1387.3 1053.29 1392.66 1048.56C1400.33 1042.02 1407.59 1034.95 1416.98 1029.25C1442.08 1013.93 1479.04 1012.03 1514.31 1012.03C1571 1012.3 1634.75 1005.7 1673.46 959.727C1710.44 915.911 1714.41 854.935 1700.4 800.967C1691.01 764.897 1675.17 730.825 1653.65 700.397C1631.1 668.738 1601.08 642.988 1574.37 610.844C1523.57 549.805 1475.46 484.377 1408.37 446.386C1361.96 420.151 1306.9 403.498 1254.27 379.163C1187.02 348.074 1128.39 304.574 1061.77 317.259C1026.2 323.971 995.952 346.132 960.09 360.97C899.313 386.402 828.875 393.41 771.411 428.762Z" stroke="#6926F7" stroke-width="3" stroke-miterlimit="10"/>
<path d="M744.914 418.948C699.327 446.914 662.283 489.189 644.605 539.105C632.475 573.275 630.323 612.11 645.069 645.88C669.329 701.431 720.106 738.536 773.921 762.385C807.906 777.455 843.072 791.047 877.985 802.93C895.129 808.741 912.174 814.067 929.121 818.907C1008.76 841.259 1062.02 891.09 1122.15 951.095C1152.73 981.614 1186.15 1013.61 1220.56 1039.74C1264.86 1073.51 1337.55 1110 1384.01 1083.05C1390.77 1078.97 1397.02 1074.09 1402.63 1068.53C1410.75 1060.8 1418.37 1052.47 1428.37 1045.73C1455.1 1027.58 1495.14 1024.63 1533.05 1024.29C1593.99 1023.8 1663.02 1016.5 1703.58 965.7C1741.26 918.486 1742.74 853.732 1725.86 797.59C1714.55 760.104 1696.64 724.938 1672.97 693.749C1648.21 661.266 1615.66 635.412 1587.35 602.022C1533.55 538.493 1484.57 469.054 1415.25 427.496C1367.87 399.108 1311.12 379.796 1256.34 354.575C1186.3 322.325 1123.43 280.471 1054.37 296.491C1016.39 305.292 984.645 330.134 946.609 346.618C881.888 374.857 806.429 381.147 744.914 418.948Z" stroke="#6926F7" stroke-width="3" stroke-miterlimit="10"/>
<path d="M718.524 408.944C671.629 437.648 633.867 481.422 616.042 532.836C603.827 568.041 601.844 607.805 616.696 642.693C641.462 700.861 693.104 741.279 748.754 768C783.893 784.797 819.938 799.63 856.721 812.428C874.568 818.633 892.415 824.268 910.093 829.313C993.843 852.529 1048.8 905.041 1111.32 967.684C1143.96 1000.38 1179.8 1034.72 1216.8 1062.41C1264.27 1098.16 1343.38 1136.87 1392.91 1105.32C1400.15 1100.51 1406.79 1094.84 1412.67 1088.43C1421.22 1079.5 1429.19 1069.94 1439.78 1062.13C1468.16 1041.2 1511.19 1037.23 1551.84 1036.45C1617.03 1035.2 1691.37 1027.33 1733.75 971.546C1772.08 921.082 1770.98 852.74 1751.07 794.256C1737.86 755.314 1717.91 719.006 1692.11 686.995C1665.08 653.732 1630.02 627.729 1600.13 593.073C1543.32 527.138 1493.47 453.773 1421.91 408.564C1373.56 378.087 1315.13 356.136 1258.17 330.007C1185.35 296.533 1118.31 256.432 1046.75 275.765C1006.52 286.613 973.19 314.135 932.834 332.265C864.463 363.334 783.963 368.906 718.524 408.944Z" stroke="#6926F7" stroke-width="3" stroke-miterlimit="10"/>
<path d="M692.175 399.045C643.972 428.467 605.472 473.781 587.52 526.694C575.242 562.912 573.386 603.626 588.343 639.612C613.658 700.439 666.164 744.129 723.629 773.698C759.791 792.26 797.141 808.407 835.436 822.031C854 828.637 872.585 834.547 891.023 839.654C978.907 863.715 1035.55 918.929 1100.46 984.189C1135.16 1019.1 1173.47 1055.67 1213.11 1084.97C1263.74 1122.67 1349.11 1163.63 1401.89 1127.48C1409.6 1121.95 1416.61 1115.51 1422.76 1108.29C1431.75 1098.14 1440.08 1087.33 1451.28 1078.49C1481.28 1054.72 1527.22 1049.87 1570.68 1048.54C1640.15 1046.68 1719.85 1038.11 1763.96 977.35C1803.03 923.572 1799.34 851.516 1776.47 790.731C1761.33 750.438 1739.29 713.092 1711.35 680.367C1682.11 646.323 1644.52 620.173 1613.04 584.25C1553.19 515.93 1502.5 438.619 1428.71 389.779C1379.28 357.086 1319.26 332.455 1260.15 305.355C1184.53 270.784 1113.43 232.349 1039.26 254.933C996.733 267.871 961.84 298.053 919.375 317.829C847.038 351.789 761.517 356.643 692.175 399.045Z" stroke="#6926F7" stroke-width="3" stroke-miterlimit="10"/>
<path d="M665.637 389.146C616.125 419.307 577.035 466.141 558.851 520.531C546.468 557.784 544.759 599.426 559.842 636.615C585.6 700.08 639.056 747.041 698.335 779.481C735.56 799.783 774.261 817.252 814.108 831.74C833.389 838.726 852.734 844.931 871.931 850.187C963.929 875.071 1022.26 932.985 1089.55 1000.88C1126.32 1037.97 1167.1 1076.87 1209.33 1107.7C1263.13 1147.32 1354.89 1190.56 1410.78 1149.91C1418.99 1143.6 1426.37 1136.27 1432.76 1128.11C1442.19 1116.78 1450.88 1104.7 1462.69 1094.81C1494.34 1068.23 1543.36 1062.41 1589.46 1060.61C1663.16 1058 1748.26 1048.88 1794.08 983.133C1833.89 926.02 1827.6 850.165 1801.78 787.227C1784.74 745.529 1760.64 707.081 1730.54 673.571C1699.05 638.767 1658.94 612.49 1625.89 575.28C1563.02 504.575 1511.42 423.317 1435.44 370.826C1384.95 336.001 1323.31 308.69 1262.05 280.767C1183.7 245.161 1108.5 208.479 1031.81 234.27C986.986 249.319 950.554 282.139 905.874 303.54C829.613 340.265 739.05 344.401 665.637 389.146Z" stroke="#6926F7" stroke-width="3" stroke-miterlimit="10"/>
<path d="M639.204 379.226C588.385 410.147 548.493 458.479 530.246 514.305C517.799 552.57 516.217 595.141 531.406 633.364C557.67 699.658 612.012 749.806 673.189 785.116C711.441 807.148 751.473 825.928 792.865 841.259C812.863 848.646 832.946 855.125 852.903 860.528C949.036 886.257 1009.01 946.873 1078.63 1017.39C1117.46 1056.69 1160.73 1097.76 1205.54 1130.24C1262.5 1171.82 1360.55 1217.35 1419.66 1171.97C1428.36 1165.02 1436.16 1157 1442.86 1148.1C1452.71 1135.56 1461.85 1122.24 1474.17 1111.31C1507.44 1081.91 1559.48 1075.11 1608.32 1072.86C1686.37 1069.48 1776.81 1059.83 1824.33 989.064C1864.9 928.659 1855.98 849.194 1827.22 783.892C1808.27 740.795 1782.1 701.251 1749.85 666.965C1716.09 631.359 1673.5 604.955 1638.86 566.5C1572.98 493.389 1520.47 408.099 1442.31 352.042C1390.78 315.085 1327.51 285.093 1264.1 256.284C1182.9 219.433 1103.77 184.523 1024.28 213.523C977.198 230.724 939.184 266.14 892.267 289.188C812.188 328.72 716.604 332.139 639.204 379.226Z" stroke="#6926F7" stroke-width="3" stroke-miterlimit="10"/>
<path d="M612.771 369.328C560.707 400.987 519.951 450.839 501.661 508.248C489.109 547.526 487.674 591.047 502.99 630.388C529.718 699.11 585.009 752.634 647.895 790.794C687.171 814.553 728.545 834.653 771.495 850.841C792.211 858.65 813.053 865.383 833.769 870.934C934.015 897.506 995.699 960.824 1067.8 1033.98C1108.67 1075.45 1154.42 1118.78 1201.82 1152.87C1261.97 1196.37 1366.37 1244.17 1428.6 1194.19C1437.75 1186.51 1445.88 1177.71 1452.82 1167.98C1463.11 1154.24 1472.52 1139.7 1485.54 1127.71C1520.45 1095.48 1575.49 1087.61 1627.03 1084.99C1709.3 1080.77 1805.24 1070.68 1854.44 994.911C1895.78 931.192 1884.27 848.013 1852.5 780.452C1831.66 735.922 1803.44 695.244 1769.02 660.148C1733.05 623.888 1687.89 597.336 1651.67 557.615C1582.79 482.097 1529.31 392.988 1449.02 333.173C1396.43 294.106 1331.56 261.413 1265.98 231.716C1181.99 193.725 1098.77 160.61 1016.71 192.776C967.388 212.109 927.75 250.1 878.639 274.836C794.763 317.196 694.285 320.045 612.771 369.328Z" stroke="#6926F7" stroke-width="3" stroke-miterlimit="10"/>
<path d="M586.317 359.429C532.945 391.911 491.514 443.199 473.055 502.085C460.398 542.376 459.132 586.847 474.553 627.307C501.766 698.687 557.986 755.484 622.686 796.514C662.972 821.996 705.681 843.424 750.188 860.486C771.299 868.589 792.826 875.564 814.677 881.381C919.058 908.819 982.408 974.818 1056.92 1050.61C1099.85 1094.28 1148.09 1139.85 1198.07 1175.54C1261.36 1220.98 1372.11 1271.04 1437.53 1216.46C1447.14 1208.06 1455.65 1198.46 1462.84 1187.9C1473.58 1172.98 1483.34 1157.17 1496.97 1144.13C1533.51 1109.09 1591.54 1100.36 1645.82 1097.17C1732.32 1092.27 1833.76 1081.59 1884.6 1000.78C1926.8 933.745 1912.58 846.873 1877.85 777.054C1855.11 731.162 1824.82 689.418 1788.26 653.563C1750.06 616.416 1702.38 589.717 1664.56 548.729C1592.66 470.827 1538.32 377.77 1455.71 314.304C1402.06 273.126 1335.46 237.732 1267.85 207.149C1181.17 167.976 1093.94 136.697 1009.2 172.007C957.642 193.514 916.379 234.101 865.075 260.442C777.338 305.651 671.776 307.804 586.317 359.429Z" stroke="#6926F7" stroke-width="3" stroke-miterlimit="10"/>
<path d="M559.885 349.509C505.205 382.73 463.056 435.537 444.471 495.943C431.814 537.247 430.569 582.667 446.116 624.225C473.815 698.244 530.984 758.312 597.477 802.212C638.757 829.409 682.797 852.162 728.861 870.089C750.662 878.584 772.926 885.842 795.544 891.829C904.06 920.09 969.076 988.79 1045.97 1067.2C1090.97 1113.08 1141.68 1160.89 1194.25 1198.18C1260.72 1245.54 1377.91 1298.01 1446.39 1238.69C1456.48 1229.56 1465.36 1219.19 1472.82 1207.81C1483.98 1191.68 1494.1 1174.63 1508.32 1160.55C1546.51 1122.69 1607.47 1112.98 1664.54 1109.33C1755.25 1103.67 1862.26 1092.44 1914.69 1006.65C1957.68 936.299 1940.85 845.691 1903.15 773.635C1878.53 726.357 1846.19 683.521 1807.48 646.893C1767.04 608.902 1716.77 582.119 1677.45 539.885C1602.54 459.577 1547.26 362.595 1462.57 295.478C1407.86 252.21 1339.81 214.072 1269.88 182.56C1180.33 142.248 1089.13 112.784 1001.69 151.302C947.917 174.983 905.051 218.145 851.489 246.111C759.913 294.127 649.33 295.541 559.885 349.509Z" stroke="#6926F7" stroke-width="3" stroke-miterlimit="10"/>
<path d="M533.431 339.61C477.464 373.549 434.577 427.897 415.865 489.78C403.06 532.118 402.026 578.425 417.701 621.144C445.863 697.822 503.96 761.14 572.268 807.932C614.54 836.837 659.919 860.908 707.554 879.693C730.085 888.588 753.128 896.129 776.558 902.276C889.208 931.381 955.744 1002.93 1035.19 1083.79C1082.15 1131.95 1135.46 1181.91 1190.6 1220.81C1260.22 1270.11 1383.75 1324.84 1455.39 1260.91C1466.34 1251.22 1474.91 1239.8 1482.94 1227.69C1494.55 1210.36 1505.03 1192.06 1519.86 1176.93C1559.67 1136.28 1623.71 1125.58 1683.44 1121.46C1778.37 1115.13 1890.93 1103.33 1945.02 1012.47C1988.84 938.811 1969.32 844.509 1928.65 770.173C1902.13 721.498 1867.72 677.563 1826.82 640.16C1784.15 601.431 1731.45 574.478 1690.44 530.958C1612.51 448.243 1556.29 347.335 1469.44 276.567C1413.64 231.104 1343.88 190.391 1271.84 158.014C1179.48 116.52 1084.34 88.8918 994.18 130.555C938.213 156.431 893.681 202.147 837.925 231.864C742.488 282.582 626.779 283.299 533.431 339.61Z" stroke="#6926F7" stroke-width="3" stroke-miterlimit="10"/>
<path d="M506.998 329.712C449.702 364.389 406.098 420.235 387.259 483.638C374.37 526.99 373.463 574.394 389.369 618.062C417.932 697.379 477 763.968 547.059 813.631C590.337 844.243 637.069 869.647 686.29 889.317C709.508 898.593 733.288 906.397 757.487 912.681C874.251 942.652 942.475 1016.88 1024.33 1100.4C1073.33 1150.76 1129.11 1202.97 1186.76 1243.48C1259.65 1294.7 1389.45 1351.69 1464.27 1283.18C1475.69 1272.79 1484.59 1260.45 1492.92 1247.61C1504.97 1229.1 1515.81 1209.62 1531.25 1193.37C1572.68 1149.89 1639.73 1138.22 1702.13 1133.64C1801.28 1126.49 1919.41 1114.24 1975.04 1018.36C2019.68 941.365 1997.51 843.348 1953.95 766.775C1925.53 716.709 1889.05 671.676 1845.98 633.491C1801.07 593.98 1745.86 566.88 1703.25 522.093C1622.32 436.994 1565.15 332.139 1476.15 257.719C1419.19 210.188 1348.04 166.71 1273.82 133.447C1178.7 90.7914 1079.62 64.9998 986.712 109.808C928.552 137.879 882.373 186.148 824.403 217.449C725.063 271.058 604.418 271.037 506.998 329.712Z" stroke="#6926F7" stroke-width="3" stroke-miterlimit="10"/>
<path d="M480.566 319.75C421.805 355.388 378.367 411.59 358.675 477.454C345.701 521.777 344.921 570.046 360.785 614.939C389.876 696.914 449.893 766.754 521.786 819.287C566.035 851.597 614.094 878.329 664.878 898.878C688.791 908.551 713.315 916.638 738.291 923.087C859.19 953.88 929.1 1030.73 1013.34 1116.97C1064.41 1169.52 1122.67 1223.97 1182.99 1266.08C1258.93 1319.23 1395.14 1378.49 1473.11 1305.38C1485.01 1294.28 1494.21 1281.15 1502.9 1267.39C1515.35 1247.68 1526.57 1226.89 1542.6 1209.64C1585.68 1163.36 1655.72 1150.74 1720.9 1145.67C1824.27 1137.76 1948.02 1125.01 2005.19 1024.08C2050.67 943.876 2025.95 841.955 1979.2 763.23C1948.91 711.782 1910.36 665.681 1865.09 626.779C1817.94 586.509 1760.2 559.24 1716.01 513.208C1632.07 425.723 1573.95 316.921 1482.82 238.829C1424.87 189.188 1352.03 143.008 1275.66 108.858C1177.82 65.0632 1074.83 41.1501 979.076 89.0607C918.721 119.348 870.898 170.15 810.691 203.033C707.639 259.513 581.951 258.795 480.566 319.75Z" stroke="#6926F7" stroke-width="3" stroke-miterlimit="10"/>
<path d="M454.111 309.893C394.084 346.342 349.841 403.923 330.069 471.333C317.011 516.732 316.357 565.909 332.411 611.899C361.945 696.535 423.122 769.498 496.64 825.07C541.9 859.05 591.303 887.122 643.655 908.608C668.269 918.676 693.545 927.04 719.304 933.64C844.317 965.299 915.936 1044.87 1002.53 1133.7C1055.67 1188.43 1116.45 1245.12 1179.32 1288.83C1258.44 1343.94 1400.97 1405.44 1482.12 1327.75C1494.48 1315.95 1504.06 1302 1513.01 1287.52C1525.89 1266.59 1537.46 1244.55 1554.12 1226.32C1598.82 1177.2 1671.88 1163.61 1739.76 1158.08C1847.35 1149.41 1976.71 1136.15 2035.42 1030.2C2081.83 946.557 2054.4 841.048 2004.6 760.043C1972.45 707.149 1931.82 659.903 1884.35 620.194C1834.97 579.122 1774.65 551.747 1728.94 504.449C1641.98 414.558 1582.9 301.831 1489.63 220.087C1425.98 164.718 1354.58 118.968 1277.68 84.2907C1176.99 39.3349 1070.08 17.2157 971.65 68.3345C909.123 100.796 859.611 154.152 797.21 188.639C690.213 247.989 559.505 246.533 454.111 309.893Z" stroke="#6926F7" stroke-width="3" stroke-miterlimit="10"/>
<path d="M427.679 299.994C366.37 337.249 321.319 396.223 301.485 465.191C288.321 511.625 287.794 561.709 303.995 608.712C333.993 695.986 396.014 772.263 471.41 830.642C517.649 866.299 568.394 895.686 622.328 918.043C647.635 928.497 673.655 937.13 700.192 943.876C829.339 976.38 902.709 1058.63 991.627 1150.1C1046.83 1207.09 1110.06 1265.98 1175.54 1311.29C1257.81 1368.28 1406.7 1432.08 1491.02 1349.81C1503.87 1337.31 1513.79 1322.54 1523 1307.24C1536.34 1285.12 1548.32 1261.84 1565.53 1242.48C1611.94 1190.56 1687.89 1176 1758.54 1170.01C1870.49 1160.57 2005.36 1146.79 2065.58 1035.84C2112.77 948.857 2082.61 839.549 2029.95 756.413C1995.92 702.141 1953.25 653.798 1903.63 613.292C1852.01 571.545 1789.15 544.044 1741.87 495.457C1651.88 403.161 1591.84 286.613 1496.44 201.134C1436.34 147.271 1360.32 95.6036 1279.65 59.7233C1176.15 13.7122 1065.38 -6.67624 964.14 47.5874C899.461 82.2646 848.283 138.238 783.646 174.329C672.788 236.444 537.038 234.291 427.679 299.994Z" stroke="#6926F7" stroke-width="3" stroke-miterlimit="10"/>
<path d="M401.246 290.075C338.656 328.15 292.793 388.521 272.879 459.049C259.652 506.475 259.167 557.551 275.558 605.736C305.894 695.711 368.991 775.218 446.201 836.446C493.398 873.812 545.489 904.532 601.021 927.751C627.049 938.601 653.843 947.511 681.185 954.408C814.445 987.756 889.44 1072.71 980.742 1166.82C1038 1225.92 1103.69 1287.12 1171.76 1334.04C1257.22 1393.01 1412.42 1459.03 1499.9 1372.16C1513.24 1358.95 1523.49 1343.39 1533.02 1327.25C1546.78 1303.92 1559.06 1279.4 1576.95 1259.01C1624.9 1204.26 1703.94 1188.73 1777.35 1182.27C1893.55 1172.07 2034 1157.83 2095.75 1041.79C2143.83 951.495 2110.92 838.599 2055.33 753.099C2019.38 697.48 1974.65 648.069 1922.87 606.792C1868.99 564.073 1803.7 536.424 1754.76 486.487C1661.75 391.806 1600.76 271.353 1503.22 182.18C1442.04 126.207 1364.41 71.9014 1281.71 35.0714C1175.26 -12.1006 1060.65 -30.6106 956.63 26.84C889.799 63.7334 836.912 122.176 770.06 159.977C655.364 224.92 514.593 222.029 401.246 290.075Z" stroke="#6926F7" stroke-width="3" stroke-miterlimit="10"/>
<path d="M374.792 280.176C310.938 319.069 264.273 380.819 244.274 452.886C230.963 501.43 230.646 553.351 247.143 602.739C277.964 695.268 341.989 778.088 420.992 842.145C469.148 881.199 522.577 913.252 579.694 937.354C606.386 948.567 633.889 957.739 661.967 964.792C799.362 998.963 876.066 1086.6 969.815 1183.37C1029.14 1244.57 1097.32 1308.1 1167.94 1356.63C1256.55 1417.52 1418.12 1485.79 1508.79 1394.34C1522.58 1380.43 1533.17 1364.06 1543 1347.09C1557.2 1322.56 1569.84 1296.79 1588.32 1275.33C1637.91 1217.77 1719.97 1201.26 1796.05 1194.34C1916.5 1183.39 2062.57 1168.63 2125.83 1047.57C2174.77 953.923 2139.12 837.354 2080.58 749.595C2042.78 692.543 1995.99 641.993 1942.03 599.911C1885.93 556.517 1818.13 528.72 1767.57 477.602C1671.56 380.514 1609.45 256.284 1509.93 163.312C1447.59 105.312 1368.46 48.2415 1283.49 10.504C1174.48 -37.8289 1055.97 -54.4604 949.12 6.09279C880.138 45.2023 825.542 106.178 756.496 145.625C637.939 213.375 492.126 209.766 374.792 280.176Z" stroke="#6926F7" stroke-width="3" stroke-miterlimit="10"/>
<path d="M558.387 946.979C585.795 958.611 614.072 968.074 642.959 975.282C784.469 1010.32 862.86 1100.61 958.993 1200.02C1020.4 1263.51 1091.03 1329.21 1164.25 1379.42C1256.06 1442.25 1423.94 1512.79 1517.75 1416.74C1552.64 1381.02 1567.52 1329.97 1599.81 1291.91C1651.03 1231.55 1736.09 1214.05 1814.99 1206.65C1939.68 1194.95 2091.34 1179.69 2156.15 1053.59C2205.95 956.624 2167.56 836.362 2106.09 746.324C2066.39 687.902 2017.53 636.263 1961.41 593.389C1903.06 549.193 1832.73 521.27 1780.6 468.864C1681.56 369.328 1618.5 241.109 1516.76 144.57C1372 7.12702 1136.68 -127.994 941.631 -14.6544C870.497 26.6923 814.192 90.1793 742.931 131.252C620.577 201.83 469.68 197.525 348.444 270.277C238.747 336.043 177.907 475.343 218.79 599.531C269.251 753.204 407.174 883.133 558.387 946.979Z" stroke="#6926F7" stroke-width="3" stroke-miterlimit="10"/>
</g>
<defs>
<clipPath id="clip0_1_1746">
<rect width="1920" height="1080" fill="white"/>
</clipPath>
</defs>
</svg>
